<?xml version="1.0" standalone="no"?>
<!DOCTYPE svg PUBLIC "-//W3C//DTD SVG 20010904//EN"
 "http://www.w3.org/TR/2001/REC-SVG-20010904/DTD/svg10.dtd">
<svg version="1.0" xmlns="http://www.w3.org/2000/svg"
 width="192.000000pt" height="443.000000pt" viewBox="0 0 192.000000 443.000000"
 preserveAspectRatio="xMidYMid meet">

<g transform="translate(0.000000,443.000000) scale(0.100000,-0.100000)"
fill="#000000" stroke="none">
<path d="M863 1295 c-145 -39 -249 -140 -293 -283 -43 -139 -8 -281 96 -392
219 -235 618 -132 699 180 19 74 19 127 -1 203 -56 215 -286 350 -501 292z
m195 -49 c108 -29 192 -100 241 -205 22 -47 26 -70 26 -141 0 -72 -4 -94 -29
-147 -102 -223 -394 -281 -577 -116 -147 133 -157 355 -22 503 89 99 231 140
361 106z"/>
<path d="M4 455 c-3 -8 -3 -19 1 -25 4 -7 306 -10 961 -10 l954 0 0 25 0 25
-955 0 c-826 0 -956 -2 -961 -15z"/>
</g>
</svg>
